<?xml version="1.0" encoding="iso-8859-1"?>
<!-- Generator: Adobe Illustrator 19.0.0, SVG Export Plug-In . SVG Version: 6.00 Build 0)  -->
<svg xmlns="http://www.w3.org/2000/svg" xmlns:xlink="http://www.w3.org/1999/xlink" version="1.1" id="Capa_1" x="0px" y="0px" viewBox="0 0 410 410" style="enable-background:new 0 0 410 410;" xml:space="preserve" width="512px" height="512px">
<g>
	<g>
		<path d="M405,150.963c-1.2-1.4-2.5-2.7-4-3.7l-184-127.7c-7.2-5.1-16.8-5.1-24,0L9.2,147.263c-1.5,1-2.8,2.2-4,3.6l70.8,82.9    v-118.2c-0.1-5.6,4.3-10.2,9.8-10.3h238.4c5.5,0.2,9.9,4.8,9.8,10.3v121L405,150.963z" fill="#FFFFFF"/>
	</g>
</g>
<g>
	<g>
		<path d="M314,260.563v-135.3H96v131.9l42.2,49.4l46.7-26.3c12.5-7,27.7-7,40.2,0l49.7,28l39.3-47.5    C314.1,260.662,314,260.662,314,260.563z M215,256.162v6.1c0,5.5-4.5,10-10,10s-10-4.5-10-10v-6.1c-13.3-4.3-22.4-16.7-22.4-30.8    c0-5.5,4.5-10,10-10s10,4.5,10,10c0,6.8,5.6,12.4,12.5,12.4c6.8,0,12.4-5.6,12.4-12.5c0-6.8-5.6-12.4-12.5-12.4    c-14.1,0-26.6-9-30.9-22.4c-5.4-17.1,3.9-35.4,20.9-40.9v-6.4c0-5.5,4.5-10,10-10s10,4.5,10,10v6.4c13.3,4.3,22.4,16.7,22.4,30.8    c0,5.5-4.5,10-10,10s-10-4.5-10-10c0-6.8-5.5-12.4-12.4-12.4c-6.8,0-12.3,5.5-12.3,12.4c-0.1,6.8,5.4,12.4,12.3,12.5    c14,0,26.5,9,30.8,22.4C241.5,232.263,232.2,250.662,215,256.162z" fill="#FFFFFF"/>
	</g>
</g>
<g>
	<g>
		<path d="M78.2,267.162L0,175.662v198c0,3.3,0.7,6.5,2.2,9.4l118.1-66.6L78.2,267.162z" fill="#FFFFFF"/>
	</g>
</g>
<g>
	<g>
		<path d="M273.7,330.162l-58.2-32.6c-6.4-3.6-14.3-3.6-20.7-0.1l-172.5,96.8h365.6L273.7,330.162z" fill="#FFFFFF"/>
	</g>
</g>
<g>
	<g>
		<path d="M292.6,318.263l115.2,64.8c1.4-2.9,2.2-6.1,2.2-9.4v-197.4L292.6,318.263z" fill="#FFFFFF"/>
	</g>
</g>
<g>
</g>
<g>
</g>
<g>
</g>
<g>
</g>
<g>
</g>
<g>
</g>
<g>
</g>
<g>
</g>
<g>
</g>
<g>
</g>
<g>
</g>
<g>
</g>
<g>
</g>
<g>
</g>
<g>
</g>
</svg>
