<?xml version="1.0" encoding="iso-8859-1"?>
<!-- Generator: Adobe Illustrator 18.1.1, SVG Export Plug-In . SVG Version: 6.00 Build 0)  -->
<svg xmlns="http://www.w3.org/2000/svg" xmlns:xlink="http://www.w3.org/1999/xlink" version="1.1" id="Capa_1" x="0px" y="0px" viewBox="0 0 61.166 61.166" style="enable-background:new 0 0 61.166 61.166;" xml:space="preserve" width="512px" height="512px">
<g>
	<g>
		<polygon points="26.135,39.477 22.225,39.477 22.225,57.621 22.225,60.72 22.225,61.166 26.634,61.166     26.634,60.72 41.662,60.72 41.662,57.621 26.135,57.621   " fill="#FFFFFF"/>
		<ellipse cx="18.731" cy="7.034" rx="4.922" ry="4.742" fill="#FFFFFF"/>
		<polygon points="26.115,15.089 26.526,16.32 33.6,18.882 35.324,18.547 34.104,17.388   " fill="#FFFFFF"/>
		<path d="M44.559,0v3.916H42.53v1.268c-0.522-0.27-1.168-0.341-1.842-0.039    c-4.654,2.101-9.447,3.872-14.265,5.584c-0.118,0.042-0.22,0.096-0.321,0.151c-2.607,0-5.563,2.33-4.792,5.558    c0.906,3.782,1.813,7.563,2.718,11.345c-5.223,2.075-10.446,4.151-15.669,6.226c-3.228,1.284-1.816,6.41,1.461,5.106    c6.047-2.402,12.092-4.807,18.139-7.207c0.03,0,0.061,0.002,0.091,0.002c1.568,2.213,3.57,4.129,5.664,5.884    c1.416,1.188,3.249,0.915,4.313-0.535c2-2.718,3.771-5.509,4.939-8.659c1.198-3.222-4.111-4.598-5.301-1.407    c-0.617,1.664-1.499,3.213-2.486,4.702c-0.982-0.953-1.892-1.973-2.67-3.091c0.124-0.479,0.159-1.004,0.074-1.571l5.73-5.01    l-2.528-2.875l-1.753,0.336l-7.075-2.579l1.718,4.227l-4.103-0.411c0,0-3.028-7.826-0.349-7.161    c0.328,0.083,0.628,0.215,0.899,0.385l1.064,0.309c0.082,0.032,0.167,0.055,0.254,0.073l8.125,2.358l-2.449-4.127    c3.511-1.303,6.996-2.677,10.41-4.211v1.155h2.025v3.917h10.08V0H44.559z M44.559,8.741H43.53V7.766    c0.285-0.482,0.25-1.057,0-1.566V4.879h1.029V8.741z" fill="#FFFFFF"/>
	</g>
</g>
<g>
</g>
<g>
</g>
<g>
</g>
<g>
</g>
<g>
</g>
<g>
</g>
<g>
</g>
<g>
</g>
<g>
</g>
<g>
</g>
<g>
</g>
<g>
</g>
<g>
</g>
<g>
</g>
<g>
</g>
</svg>
