<?xml version="1.0"?>
<svg xmlns="http://www.w3.org/2000/svg" height="512px" viewBox="0 0 512 512" width="512px"><path d="m161.5625 182.792969-97.039062-97.035157c-39.570313 44.390626-62.175782 100.347657-64.523438 159.914063 60.1875-.957031 116.765625-23.03125 161.5625-62.878906zm0 0" fill="#FFFFFF"/><path d="m182.792969 161.5625c39.84375-44.796875 61.90625-101.378906 62.878906-161.5625-59.566406 2.347656-115.523437 24.953125-159.914063 64.523438zm0 0" fill="#FFFFFF"/><path d="m256.148438 98.832031c-12.261719 31.011719-29.753907 59.203125-52.082032 84l51.933594 51.9375 170.242188-170.246093c-42.058594-37.492188-94.496094-59.765626-150.554688-63.996094-.554688 33.820312-7.101562 66.847656-19.539062 98.304687zm0 0" fill="#FFFFFF"/><path d="m511.472656 236.3125c-4.230468-56.058594-26.503906-108.496094-63.996094-150.554688l-170.246093 170.242188 51.9375 51.933594c24.792969-22.328125 52.988281-39.820313 84-52.082032 31.457031-12.4375 64.503906-18.976562 98.304687-19.539062zm0 0" fill="#FFFFFF"/><path d="m350.4375 329.207031 97.039062 97.035157c39.570313-44.390626 62.175782-100.347657 64.523438-159.914063-60.183594.96875-116.765625 23.035156-161.5625 62.878906zm0 0" fill="#FFFFFF"/><path d="m329.207031 350.4375c-39.84375 44.796875-61.90625 101.378906-62.878906 161.5625 59.566406-2.347656 115.523437-24.953125 159.914063-64.523438zm0 0" fill="#FFFFFF"/><path d="m234.769531 256-51.9375-51.933594c-24.792969 22.328125-52.988281 39.820313-84 52.082032-31.457031 12.433593-64.484375 18.988281-98.304687 19.542968 4.230468 56.054688 26.503906 108.492188 63.996094 150.550782zm0 0" fill="#FFFFFF"/><path d="m255.851562 413.167969c12.261719-31.011719 29.753907-59.207031 52.082032-84.003907l-51.933594-51.933593-170.242188 170.246093c42.058594 37.492188 94.496094 59.765626 150.554688 63.996094.554688-33.820312 7.101562-66.847656 19.539062-98.304687zm0 0" fill="#FFFFFF"/></svg>
